<svg xmlns="http://www.w3.org/2000/svg" width="32" height="34" fill="none" viewBox="0 0 32 34">
  <path fill="#fff" d="M10.443 15.68c.068-.067.324-.357.562-.595 1.398-1.496 5.046-3.946 6.955-4.694.29-.12 1.023-.375 1.414-.391.376 0 .733.084 1.075.254.425.238.767.613.954 1.055.12.307.307 1.225.307 1.241.187 1.005.29 2.637.29 4.44 0 1.72-.103 3.285-.256 4.305-.018.016-.205 1.157-.41 1.548A2.148 2.148 0 0 1 19.443 24h-.068c-.51-.017-1.585-.46-1.585-.477-1.806-.75-5.37-3.079-6.801-4.627 0 0-.403-.398-.579-.646a2.05 2.05 0 0 1-.409-1.242c0-.493.153-.953.443-1.327Z"/>
</svg>
