<svg xmlns="http://www.w3.org/2000/svg" width="31" height="32" fill="none" viewBox="0 0 31 32">
  <rect width="31" height="31" y=".5" fill="#fff" rx="10"/>
  <g clip-path="url(#a)">
    <path fill="#2D3D80" d="M10.5 6A2.502 2.502 0 0 0 8 8.5v15c0 1.379 1.121 2.5 2.5 2.5h10c1.379 0 2.5-1.121 2.5-2.5V12.25h-5A1.25 1.25 0 0 1 16.75 11V6H10.5ZM18 6v5h5l-5-5Zm-3.75 9.375c0-.344.281-.625.625-.625h1.25c.344 0 .625.281.625.625v1.875h1.875c.344 0 .625.281.625.625v1.25a.627.627 0 0 1-.625.625H16.75v1.875a.627.627 0 0 1-.625.625h-1.25a.627.627 0 0 1-.625-.625V19.75h-1.875a.627.627 0 0 1-.625-.625v-1.25c0-.344.281-.625.625-.625h1.875v-1.875Z"/>
  </g>
  <defs>
    <clipPath id="a">
      <path fill="#fff" d="M0 0h15v20H0z" transform="translate(8 6)"/>
    </clipPath>
  </defs>
</svg>
