<svg xmlns="http://www.w3.org/2000/svg" width="13" height="15" fill="none" viewBox="0 0 13 15">
  <path fill="#181818" d="M13 4.765a3.513 3.513 0 0 0-.896-2.343 3.198 3.198 0 0 0-2.183-1.06v-.144a.736.736 0 0 0-.2-.508.668.668 0 0 0-.484-.21.668.668 0 0 0-.484.21.736.736 0 0 0-.2.508v.122H4.447v-.122a.736.736 0 0 0-.2-.508.668.668 0 0 0-.484-.21.668.668 0 0 0-.484.21.736.736 0 0 0-.2.508v.144c-.83.048-1.61.428-2.183 1.06A3.514 3.514 0 0 0 0 4.765v1.357a.218.218 0 0 0 .014.064.14.14 0 0 0-.014.058v5.025c.001.857.326 1.678.903 2.283a3.01 3.01 0 0 0 2.176.948H9.92a3.012 3.012 0 0 0 2.176-.948A3.319 3.319 0 0 0 13 11.27V6.244a.14.14 0 0 0-.014-.058.22.22 0 0 0 .014-.064V4.765Zm-9.237 7.222a.661.661 0 0 1-.38-.12.712.712 0 0 1-.252-.323.75.75 0 0 1 .148-.782.655.655 0 0 1 .746-.156.693.693 0 0 1 .307.264.743.743 0 0 1-.085.907.669.669 0 0 1-.484.21Zm0-2.872a.662.662 0 0 1-.38-.12.712.712 0 0 1-.252-.323.75.75 0 0 1 .148-.782.654.654 0 0 1 .746-.156.692.692 0 0 1 .307.265.743.743 0 0 1-.085.906.668.668 0 0 1-.484.21ZM6.5 11.987a.662.662 0 0 1-.38-.12.712.712 0 0 1-.252-.323.751.751 0 0 1 .148-.782.655.655 0 0 1 .746-.156.693.693 0 0 1 .307.264.743.743 0 0 1-.085.907.668.668 0 0 1-.484.21Zm0-2.872a.662.662 0 0 1-.38-.12.712.712 0 0 1-.252-.323.75.75 0 0 1 .148-.782.654.654 0 0 1 .746-.156.692.692 0 0 1 .307.265.743.743 0 0 1-.085.906.668.668 0 0 1-.484.21Zm2.737 2.872a.661.661 0 0 1-.38-.12.712.712 0 0 1-.252-.323.751.751 0 0 1 .148-.782.655.655 0 0 1 .746-.156.693.693 0 0 1 .307.264.743.743 0 0 1-.085.907.668.668 0 0 1-.484.21Zm0-2.872a.662.662 0 0 1-.38-.12.712.712 0 0 1-.252-.323.75.75 0 0 1 .148-.782.654.654 0 0 1 .746-.156.692.692 0 0 1 .307.265.743.743 0 0 1-.085.906.668.668 0 0 1-.484.21Zm2.395-3.23H1.368v-1.12a2.04 2.04 0 0 1 .503-1.343 1.86 1.86 0 0 1 1.235-.632.715.715 0 0 0 .229.415c.12.106.271.165.428.167a.666.666 0 0 0 .434-.173.727.727 0 0 0 .23-.423h4.146a.727.727 0 0 0 .23.423c.12.11.274.17.434.173a.655.655 0 0 0 .428-.167c.12-.106.2-.253.229-.415.472.042.912.268 1.234.633.322.366.501.844.504 1.342v1.12Z"/>
</svg>
