<svg width="13" height="13" viewBox="0 0 13 13" fill="none" xmlns="http://www.w3.org/2000/svg">
<path d="M5.27896 7.225H7.00807L7.47111 5.525H5.742L5.27896 7.225Z" fill="#899DC5"/>
<path d="M6.375 0C2.8543 0 0 2.8543 0 6.375C0 9.8957 2.8543 12.75 6.375 12.75C9.8957 12.75 12.75 9.8957 12.75 6.375C12.75 2.8543 9.8957 0 6.375 0ZM10.0651 5.525H8.76796L8.30471 7.225H9.60139L9.25395 8.5H7.95685L7.60941 9.775H6.31231L6.66017 8.5H4.93064L4.5832 9.775H3.2861L3.63396 8.5H2.3375L2.68494 7.225H3.98204L4.44529 5.525H3.14861L3.49605 4.25H4.79273L5.14059 2.975H6.43726L6.08983 4.25H7.81894L8.1668 2.975H9.46348L9.11604 4.25H10.4125L10.0651 5.525Z" fill="#899DC5"/>
</svg>
