<svg xmlns="http://www.w3.org/2000/svg" width="12" height="14" fill="none" viewBox="0 0 12 14">
  <path fill="#899DC5" d="M6 7c1.894 0 3.429-1.567 3.429-3.5S7.894 0 6 0 2.571 1.567 2.571 3.5 4.106 7 6 7ZM3.429 8.51C1.446 9.102 0 10.972 0 13.187c0 .448.356.812.796.812h10.409a.804.804 0 0 0 .795-.812c0-2.215-1.446-4.085-3.429-4.679V9.9c.74.194 1.286.88 1.286 1.695v1.094c0 .24-.193.437-.428.437H9a.434.434 0 0 1-.429-.438c0-.24.193-.437.429-.437v-.656a.865.865 0 0 0-.857-.875.865.865 0 0 0-.857.875v.656c.235 0 .428.197.428.438 0 .24-.193.437-.428.437h-.429a.434.434 0 0 1-.428-.438v-1.093c0-.815.546-1.501 1.285-1.696v-1.56a4.823 4.823 0 0 0-.49-.025H4.776c-.166 0-.33.008-.49.024v1.788a1.53 1.53 0 0 1 1.071 1.469c0 .845-.672 1.531-1.5 1.531s-1.5-.686-1.5-1.531c0-.695.453-1.28 1.072-1.469V8.51Zm.428 3.74a.648.648 0 0 0 .643-.656.648.648 0 0 0-.643-.656.648.648 0 0 0-.643.656c0 .363.287.656.643.656Z"/>
</svg>
