<svg xmlns="http://www.w3.org/2000/svg" width="11" height="16" fill="none" viewBox="0 0 11 16">
  <path fill="#899DC5" d="M6.685.5H1.833C1.347.5.881.698.537 1.05A1.897 1.897 0 0 0 0 2.374v11.25c0 .497.193.974.537 1.326.344.351.81.549 1.296.549h7.334c.486 0 .952-.197 1.296-.55.344-.35.537-.828.537-1.325V4.913a.949.949 0 0 0-.269-.663L7.333.775A.906.906 0 0 0 6.685.5Zm.19 3.281V1.906l2.75 2.813H7.792a.906.906 0 0 1-.649-.275.948.948 0 0 1-.268-.663Zm-2.75 1.875v.595l.503-.298a.452.452 0 0 1 .629.17.476.476 0 0 1-.17.642l-.504.298.504.297a.461.461 0 0 1 .215.284.479.479 0 0 1-.164.496.454.454 0 0 1-.51.032l-.503-.298v.595a.474.474 0 0 1-.134.331.453.453 0 0 1-.648 0 .474.474 0 0 1-.135-.331v-.595l-.503.298a.452.452 0 0 1-.629-.17.476.476 0 0 1 .17-.642l.504-.298-.503-.297a.478.478 0 0 1-.165-.639.45.45 0 0 1 .623-.173l.503.298v-.595c0-.124.049-.243.135-.331a.453.453 0 0 1 .648 0 .474.474 0 0 1 .134.331ZM2.292 9.875h4.583c.122 0 .238.05.324.137a.474.474 0 0 1 0 .663.453.453 0 0 1-.324.137H2.292a.453.453 0 0 1-.324-.137.474.474 0 0 1 0-.663.453.453 0 0 1 .324-.137Zm0 1.875h4.583c.122 0 .238.05.324.137a.474.474 0 0 1 0 .663.453.453 0 0 1-.324.137H2.292a.453.453 0 0 1-.324-.137.474.474 0 0 1 0-.663.453.453 0 0 1 .324-.137Z"/>
</svg>
