<svg xmlns="http://www.w3.org/2000/svg" width="13" height="12" fill="none" viewBox="0 0 13 12">
  <path fill="#58489D" d="M4.875 2.071c0-.416.171-.816.476-1.11A1.649 1.649 0 0 1 6.5.5c.431 0 .844.166 1.149.46.305.295.476.695.476 1.111v.621c2.35.676 4.063 2.78 4.063 5.272a.386.386 0 0 1-.12.278.413.413 0 0 1-.287.115H1.22a.413.413 0 0 1-.288-.115.386.386 0 0 1-.119-.278c0-1.184.396-2.337 1.128-3.287a5.693 5.693 0 0 1 2.935-1.985v-.62Zm2.031 2.75c.343 0 .683.004 1.03.125.336.116.707.354 1.07.88a.4.4 0 0 0 .258.167.42.42 0 0 0 .305-.059.4.4 0 0 0 .173-.25.38.38 0 0 0-.06-.295c-.451-.653-.959-1.005-1.47-1.183-.49-.17-.956-.17-1.29-.17h-.016a.413.413 0 0 0-.287.115.386.386 0 0 0 0 .555c.076.074.18.115.287.115ZM1.22 9.143a1.24 1.24 0 0 0-.862.345 1.16 1.16 0 0 0-.357.833c0 .313.128.613.357.834.229.22.539.345.862.345h10.56c.323 0 .633-.124.862-.345A1.16 1.16 0 0 0 13 10.32a1.16 1.16 0 0 0-.357-.833 1.24 1.24 0 0 0-.862-.345H1.22Z"/>
</svg>
