<svg xmlns="http://www.w3.org/2000/svg" width="30" height="29" fill="none" viewBox="0 0 30 29">
  <path fill="#FFB800" d="m29.03 10.212-8.993-1.323-4.02-8.25a1.134 1.134 0 0 0-.514-.52 1.132 1.132 0 0 0-1.52.52l-4.02 8.25L.97 10.212a1.127 1.127 0 0 0-.648.333 1.157 1.157 0 0 0 .02 1.624l6.508 6.422-1.538 9.068a1.159 1.159 0 0 0 .45 1.122 1.123 1.123 0 0 0 1.194.087L15 24.585l8.044 4.282c.22.118.475.157.72.114a1.144 1.144 0 0 0 .924-1.323l-1.537-9.068 6.506-6.422a1.15 1.15 0 0 0 .33-.656 1.141 1.141 0 0 0-.957-1.301Z"/>
</svg>
